<mxfile host="app.diagrams.net" modified="2023-06-17T01:59:34.676Z" agent="Mozilla/5.0 (Windows NT 10.0; Win64; x64) AppleWebKit/537.36 (KHTML, like Gecko) Chrome/114.0.0.0 Safari/537.36" etag="8DkIafkXEoCJ-AdaJLaS" version="21.3.8" type="github">
  <diagram name="Page-1" id="g4K_o24sXdyceMfYlm5Q">
    <mxGraphModel dx="1694" dy="468" grid="1" gridSize="10" guides="1" tooltips="1" connect="1" arrows="1" fold="1" page="1" pageScale="1" pageWidth="850" pageHeight="1100" math="0" shadow="0">
      <root>
        <mxCell id="0" />
        <mxCell id="1" parent="0" />
        <mxCell id="G1NJJKi06W6UtXgXFuYz-6" style="edgeStyle=orthogonalEdgeStyle;rounded=0;orthogonalLoop=1;jettySize=auto;html=1;" edge="1" parent="1" source="G1NJJKi06W6UtXgXFuYz-1">
          <mxGeometry relative="1" as="geometry">
            <mxPoint x="170" y="180" as="targetPoint" />
          </mxGeometry>
        </mxCell>
        <mxCell id="G1NJJKi06W6UtXgXFuYz-1" value="L" style="whiteSpace=wrap;html=1;" vertex="1" parent="1">
          <mxGeometry x="20" y="60" width="120" height="60" as="geometry" />
        </mxCell>
        <mxCell id="G1NJJKi06W6UtXgXFuYz-7" style="edgeStyle=orthogonalEdgeStyle;rounded=0;orthogonalLoop=1;jettySize=auto;html=1;" edge="1" parent="1" source="G1NJJKi06W6UtXgXFuYz-2">
          <mxGeometry relative="1" as="geometry">
            <mxPoint x="190" y="180" as="targetPoint" />
          </mxGeometry>
        </mxCell>
        <mxCell id="G1NJJKi06W6UtXgXFuYz-2" value="R" style="whiteSpace=wrap;html=1;" vertex="1" parent="1">
          <mxGeometry x="210" y="60" width="120" height="60" as="geometry" />
        </mxCell>
        <mxCell id="G1NJJKi06W6UtXgXFuYz-3" value="positive Int" style="text;html=1;align=center;verticalAlign=middle;resizable=0;points=[];autosize=1;strokeColor=none;fillColor=none;" vertex="1" parent="1">
          <mxGeometry x="40" y="130" width="80" height="30" as="geometry" />
        </mxCell>
        <mxCell id="G1NJJKi06W6UtXgXFuYz-4" value="positive Int" style="text;html=1;align=center;verticalAlign=middle;resizable=0;points=[];autosize=1;strokeColor=none;fillColor=none;" vertex="1" parent="1">
          <mxGeometry x="230" y="130" width="80" height="30" as="geometry" />
        </mxCell>
        <mxCell id="G1NJJKi06W6UtXgXFuYz-10" value="" style="edgeStyle=orthogonalEdgeStyle;rounded=0;orthogonalLoop=1;jettySize=auto;html=1;" edge="1" parent="1" source="G1NJJKi06W6UtXgXFuYz-5" target="G1NJJKi06W6UtXgXFuYz-9">
          <mxGeometry relative="1" as="geometry" />
        </mxCell>
        <mxCell id="G1NJJKi06W6UtXgXFuYz-5" value="How many perfect numbers between L and R&lt;br&gt;L and R in the range" style="whiteSpace=wrap;html=1;" vertex="1" parent="1">
          <mxGeometry x="120" y="190" width="120" height="60" as="geometry" />
        </mxCell>
        <mxCell id="G1NJJKi06W6UtXgXFuYz-8" value="1&amp;lt;L&amp;lt;R" style="text;html=1;align=center;verticalAlign=middle;resizable=0;points=[];autosize=1;strokeColor=none;fillColor=none;" vertex="1" parent="1">
          <mxGeometry x="150" y="50" width="60" height="30" as="geometry" />
        </mxCell>
        <mxCell id="G1NJJKi06W6UtXgXFuYz-9" value="Perfect number is equal to the sum of its divisors&lt;br&gt;6=1+2+3" style="whiteSpace=wrap;html=1;" vertex="1" parent="1">
          <mxGeometry x="120" y="330" width="120" height="60" as="geometry" />
        </mxCell>
        <mxCell id="G1NJJKi06W6UtXgXFuYz-18" value="" style="edgeStyle=orthogonalEdgeStyle;rounded=0;orthogonalLoop=1;jettySize=auto;html=1;" edge="1" parent="1" source="G1NJJKi06W6UtXgXFuYz-16" target="G1NJJKi06W6UtXgXFuYz-17">
          <mxGeometry relative="1" as="geometry" />
        </mxCell>
        <mxCell id="G1NJJKi06W6UtXgXFuYz-16" value="Input L" style="shape=parallelogram;perimeter=parallelogramPerimeter;whiteSpace=wrap;html=1;fixedSize=1;" vertex="1" parent="1">
          <mxGeometry x="120" y="470" width="120" height="60" as="geometry" />
        </mxCell>
        <mxCell id="G1NJJKi06W6UtXgXFuYz-20" value="" style="edgeStyle=orthogonalEdgeStyle;rounded=0;orthogonalLoop=1;jettySize=auto;html=1;" edge="1" parent="1" source="G1NJJKi06W6UtXgXFuYz-17" target="G1NJJKi06W6UtXgXFuYz-19">
          <mxGeometry relative="1" as="geometry" />
        </mxCell>
        <mxCell id="G1NJJKi06W6UtXgXFuYz-60" style="edgeStyle=orthogonalEdgeStyle;rounded=0;orthogonalLoop=1;jettySize=auto;html=1;" edge="1" parent="1" source="G1NJJKi06W6UtXgXFuYz-17">
          <mxGeometry relative="1" as="geometry">
            <mxPoint x="270" y="640" as="targetPoint" />
          </mxGeometry>
        </mxCell>
        <mxCell id="G1NJJKi06W6UtXgXFuYz-17" value="Input R" style="shape=parallelogram;perimeter=parallelogramPerimeter;whiteSpace=wrap;html=1;fixedSize=1;" vertex="1" parent="1">
          <mxGeometry x="120" y="610" width="120" height="60" as="geometry" />
        </mxCell>
        <mxCell id="G1NJJKi06W6UtXgXFuYz-27" value="" style="edgeStyle=orthogonalEdgeStyle;rounded=0;orthogonalLoop=1;jettySize=auto;html=1;" edge="1" parent="1" source="G1NJJKi06W6UtXgXFuYz-19" target="G1NJJKi06W6UtXgXFuYz-26">
          <mxGeometry relative="1" as="geometry" />
        </mxCell>
        <mxCell id="G1NJJKi06W6UtXgXFuYz-29" value="" style="edgeStyle=orthogonalEdgeStyle;rounded=0;orthogonalLoop=1;jettySize=auto;html=1;" edge="1" parent="1" source="G1NJJKi06W6UtXgXFuYz-19">
          <mxGeometry relative="1" as="geometry">
            <mxPoint x="320" y="825" as="targetPoint" />
          </mxGeometry>
        </mxCell>
        <mxCell id="G1NJJKi06W6UtXgXFuYz-19" value="For Loop&lt;br&gt;from L to R&lt;br&gt;and indixing is i" style="rhombus;whiteSpace=wrap;html=1;" vertex="1" parent="1">
          <mxGeometry x="120" y="740" width="120" height="170" as="geometry" />
        </mxCell>
        <mxCell id="G1NJJKi06W6UtXgXFuYz-50" style="edgeStyle=orthogonalEdgeStyle;rounded=0;orthogonalLoop=1;jettySize=auto;html=1;" edge="1" parent="1" source="G1NJJKi06W6UtXgXFuYz-26">
          <mxGeometry relative="1" as="geometry">
            <mxPoint x="-200" y="825" as="targetPoint" />
          </mxGeometry>
        </mxCell>
        <mxCell id="G1NJJKi06W6UtXgXFuYz-26" value="For Loop&lt;br&gt;from 1 to i&lt;br&gt;and indixing is j" style="rhombus;whiteSpace=wrap;html=1;" vertex="1" parent="1">
          <mxGeometry x="-140" y="740" width="120" height="170" as="geometry" />
        </mxCell>
        <mxCell id="G1NJJKi06W6UtXgXFuYz-35" value="" style="edgeStyle=orthogonalEdgeStyle;rounded=0;orthogonalLoop=1;jettySize=auto;html=1;" edge="1" parent="1" source="G1NJJKi06W6UtXgXFuYz-32" target="G1NJJKi06W6UtXgXFuYz-34">
          <mxGeometry relative="1" as="geometry" />
        </mxCell>
        <mxCell id="G1NJJKi06W6UtXgXFuYz-38" value="" style="edgeStyle=orthogonalEdgeStyle;rounded=0;orthogonalLoop=1;jettySize=auto;html=1;" edge="1" parent="1" source="G1NJJKi06W6UtXgXFuYz-32" target="G1NJJKi06W6UtXgXFuYz-37">
          <mxGeometry relative="1" as="geometry" />
        </mxCell>
        <mxCell id="G1NJJKi06W6UtXgXFuYz-32" value="is i%j==0" style="shape=parallelogram;perimeter=parallelogramPerimeter;whiteSpace=wrap;html=1;fixedSize=1;" vertex="1" parent="1">
          <mxGeometry x="-340" y="810" width="120" height="60" as="geometry" />
        </mxCell>
        <mxCell id="G1NJJKi06W6UtXgXFuYz-34" value="Continue" style="whiteSpace=wrap;html=1;" vertex="1" parent="1">
          <mxGeometry x="-570" y="810" width="120" height="60" as="geometry" />
        </mxCell>
        <mxCell id="G1NJJKi06W6UtXgXFuYz-36" value="No" style="text;html=1;align=center;verticalAlign=middle;resizable=0;points=[];autosize=1;strokeColor=none;fillColor=none;" vertex="1" parent="1">
          <mxGeometry x="-530" y="770" width="40" height="30" as="geometry" />
        </mxCell>
        <mxCell id="G1NJJKi06W6UtXgXFuYz-37" value="sum+=j" style="whiteSpace=wrap;html=1;" vertex="1" parent="1">
          <mxGeometry x="-340" y="950" width="120" height="60" as="geometry" />
        </mxCell>
        <mxCell id="G1NJJKi06W6UtXgXFuYz-39" value="Yes" style="text;html=1;align=center;verticalAlign=middle;resizable=0;points=[];autosize=1;strokeColor=none;fillColor=none;" vertex="1" parent="1">
          <mxGeometry x="-340" y="910" width="40" height="30" as="geometry" />
        </mxCell>
        <mxCell id="G1NJJKi06W6UtXgXFuYz-45" value="if sum==i&lt;br&gt;count++" style="shape=parallelogram;perimeter=parallelogramPerimeter;whiteSpace=wrap;html=1;fixedSize=1;" vertex="1" parent="1">
          <mxGeometry x="330" y="795" width="120" height="60" as="geometry" />
        </mxCell>
        <mxCell id="G1NJJKi06W6UtXgXFuYz-49" value="Create &lt;br&gt;sum =0&lt;br&gt;count =0" style="whiteSpace=wrap;html=1;" vertex="1" parent="1">
          <mxGeometry x="280" y="610" width="120" height="60" as="geometry" />
        </mxCell>
        <mxCell id="G1NJJKi06W6UtXgXFuYz-51" value="if sum==i&lt;br&gt;count++" style="shape=parallelogram;perimeter=parallelogramPerimeter;whiteSpace=wrap;html=1;fixedSize=1;" vertex="1" parent="1">
          <mxGeometry x="330" y="795" width="120" height="60" as="geometry" />
        </mxCell>
        <mxCell id="G1NJJKi06W6UtXgXFuYz-52" value="" style="edgeStyle=orthogonalEdgeStyle;rounded=0;orthogonalLoop=1;jettySize=auto;html=1;" edge="1" source="G1NJJKi06W6UtXgXFuYz-53" parent="1">
          <mxGeometry relative="1" as="geometry">
            <mxPoint x="320" y="825" as="targetPoint" />
          </mxGeometry>
        </mxCell>
        <mxCell id="G1NJJKi06W6UtXgXFuYz-61" style="edgeStyle=orthogonalEdgeStyle;rounded=0;orthogonalLoop=1;jettySize=auto;html=1;" edge="1" parent="1" source="G1NJJKi06W6UtXgXFuYz-53">
          <mxGeometry relative="1" as="geometry">
            <mxPoint x="180" y="980" as="targetPoint" />
          </mxGeometry>
        </mxCell>
        <mxCell id="G1NJJKi06W6UtXgXFuYz-53" value="For Loop&lt;br&gt;from L to R&lt;br&gt;and indixing is i" style="rhombus;whiteSpace=wrap;html=1;" vertex="1" parent="1">
          <mxGeometry x="120" y="740" width="120" height="170" as="geometry" />
        </mxCell>
        <mxCell id="G1NJJKi06W6UtXgXFuYz-54" value="" style="edgeStyle=orthogonalEdgeStyle;rounded=0;orthogonalLoop=1;jettySize=auto;html=1;" edge="1" source="G1NJJKi06W6UtXgXFuYz-53" target="G1NJJKi06W6UtXgXFuYz-55" parent="1">
          <mxGeometry relative="1" as="geometry" />
        </mxCell>
        <mxCell id="G1NJJKi06W6UtXgXFuYz-55" value="For Loop&lt;br&gt;from 1 to i&lt;br&gt;and indixing is j" style="rhombus;whiteSpace=wrap;html=1;" vertex="1" parent="1">
          <mxGeometry x="-140" y="740" width="120" height="170" as="geometry" />
        </mxCell>
        <mxCell id="G1NJJKi06W6UtXgXFuYz-56" style="edgeStyle=orthogonalEdgeStyle;rounded=0;orthogonalLoop=1;jettySize=auto;html=1;" edge="1" source="G1NJJKi06W6UtXgXFuYz-55" parent="1">
          <mxGeometry relative="1" as="geometry">
            <mxPoint x="-200" y="825" as="targetPoint" />
          </mxGeometry>
        </mxCell>
        <mxCell id="G1NJJKi06W6UtXgXFuYz-57" value="is i%j==0" style="shape=parallelogram;perimeter=parallelogramPerimeter;whiteSpace=wrap;html=1;fixedSize=1;" vertex="1" parent="1">
          <mxGeometry x="-340" y="810" width="120" height="60" as="geometry" />
        </mxCell>
        <mxCell id="G1NJJKi06W6UtXgXFuYz-58" value="sum+=j" style="whiteSpace=wrap;html=1;" vertex="1" parent="1">
          <mxGeometry x="-340" y="950" width="120" height="60" as="geometry" />
        </mxCell>
        <mxCell id="G1NJJKi06W6UtXgXFuYz-59" value="Yes" style="text;html=1;align=center;verticalAlign=middle;resizable=0;points=[];autosize=1;strokeColor=none;fillColor=none;" vertex="1" parent="1">
          <mxGeometry x="-340" y="910" width="40" height="30" as="geometry" />
        </mxCell>
        <mxCell id="G1NJJKi06W6UtXgXFuYz-62" value="Cout count" style="text;html=1;align=center;verticalAlign=middle;resizable=0;points=[];autosize=1;strokeColor=none;fillColor=none;" vertex="1" parent="1">
          <mxGeometry x="140" y="1018" width="80" height="30" as="geometry" />
        </mxCell>
      </root>
    </mxGraphModel>
  </diagram>
</mxfile>
